<svg width="32" height="32" viewBox="0 0 32 32" fill="none" xmlns="http://www.w3.org/2000/svg">
<path d="M25 28L24.35 28.76C24.6467 29.0137 25.0638 29.0716 25.4184 28.9083C25.7729 28.745 26 28.3903 26 28H25ZM5 28H4C4 28.3903 4.22712 28.745 4.58165 28.9083C4.93618 29.0716 5.35333 29.0137 5.64997 28.76L5 28ZM13.7001 20.5592L13.0501 19.7992L13.7001 20.5592ZM7 4H23V2H7V4ZM24 5V28H26V5H24ZM25.65 27.24L16.9499 19.7992L15.65 21.3191L24.35 28.76L25.65 27.24ZM13.0501 19.7992L4.35003 27.24L5.64997 28.76L14.35 21.3191L13.0501 19.7992ZM6 28V5H4V28H6ZM16.9499 19.7992C15.8273 18.839 14.1727 18.839 13.0501 19.7992L14.35 21.3191C14.7242 20.9991 15.2758 20.9991 15.65 21.3191L16.9499 19.7992ZM23 4C23.5523 4 24 4.44772 24 5H26C26 3.34315 24.6569 2 23 2V4ZM7 2C5.34315 2 4 3.34315 4 5H6C6 4.44772 6.44772 4 7 4V2Z" fill="white"/>
</svg>
