<svg width="32" height="32" viewBox="0 0 32 32" fill="none" xmlns="http://www.w3.org/2000/svg">
<path d="M23 3H7C5.89543 3 5 3.89543 5 5V28L13.7001 20.5592C14.4485 19.9191 15.5515 19.9191 16.2999 20.5592L25 28V5C25 3.89543 24.1046 3 23 3Z" fill="white"/>
<path d="M25 28L24.675 28.38C24.8233 28.5068 25.0319 28.5358 25.2092 28.4541C25.3864 28.3725 25.5 28.1952 25.5 28H25ZM16.2999 20.5592L15.975 20.9391L16.2999 20.5592ZM13.7001 20.5592L13.3751 20.1792V20.1792L13.7001 20.5592ZM5 28H4.5C4.5 28.1952 4.61356 28.3725 4.79083 28.4541C4.96809 28.5358 5.17666 28.5068 5.32498 28.38L5 28ZM7 3.5H23V2.5H7V3.5ZM24.5 5V28H25.5V5H24.5ZM25.325 27.62L16.6249 20.1792L15.975 20.9391L24.675 28.38L25.325 27.62ZM13.3751 20.1792L4.67502 27.62L5.32498 28.38L14.025 20.9391L13.3751 20.1792ZM5.5 28V5H4.5V28H5.5ZM16.6249 20.1792C15.6894 19.379 14.3106 19.379 13.3751 20.1792L14.025 20.9391C14.5864 20.4591 15.4136 20.4591 15.975 20.9391L16.6249 20.1792ZM23 3.5C23.8284 3.5 24.5 4.17157 24.5 5H25.5C25.5 3.61929 24.3807 2.5 23 2.5V3.5ZM7 2.5C5.61929 2.5 4.5 3.61929 4.5 5H5.5C5.5 4.17157 6.17157 3.5 7 3.5V2.5Z" fill="white"/>
</svg>
